<svg width="34" height="18" viewBox="0 0 34 18" fill="none" xmlns="http://www.w3.org/2000/svg">
<path fill-rule="evenodd" clip-rule="evenodd" d="M23.7726 17.4816C24.4738 18.1769 25.6059 18.1722 26.3012 17.471L33.4531 10.259C34.1443 9.56197 34.1443 8.43803 33.4531 7.74101L26.3012 0.528988C25.6059 -0.172177 24.4738 -0.176913 23.7726 0.518409C23.0715 1.21373 23.0667 2.34581 23.7621 3.04697L29.6655 9L23.7621 14.953C23.0667 15.6542 23.0715 16.7863 23.7726 17.4816Z" fill="#CFC5B8"/>
<path fill-rule="evenodd" clip-rule="evenodd" d="M1.89311 7.19687L30.2904 7.19687C31.336 7.19687 32.1836 7.99737 32.1836 8.98485C32.1836 9.97232 31.336 10.7728 30.2904 10.7728L1.89311 10.7728C0.847553 10.7728 -4.18917e-05 9.97232 -4.18054e-05 8.98484C-4.1719e-05 7.99737 0.847552 7.19687 1.89311 7.19687Z" fill="#CFC5B8"/>
</svg>
