<svg width="314" height="49" viewBox="0 0 314 49" fill="none" xmlns="http://www.w3.org/2000/svg">
<path d="M8.162 29.149V21.305C9.169 19.927 11.289 18.973 13.038 18.973C16.271 18.973 18.709 21.358 18.709 25.174C18.709 29.043 16.271 31.428 13.038 31.428C11.289 31.428 9.169 30.527 8.162 29.149ZM8.162 38V35.032C10.282 37.47 12.879 38.636 15.741 38.636C22.048 38.636 27.03 33.866 27.03 25.174C27.03 16.8 22.101 11.765 15.741 11.765C12.932 11.765 10.176 12.878 8.162 15.422V2.64896H0V38H8.162Z" fill="#0D0E14"/>
<path d="M42.6095 38.636C46.5315 38.636 50.7715 37.523 53.3155 35.244L49.8705 30.156C48.4395 31.534 45.3125 32.329 43.5105 32.329C39.8005 32.329 37.5745 30.156 37.0975 27.771H55.3295V26.022C55.3295 17.33 49.8175 11.765 42.2385 11.765C34.2355 11.765 28.6175 17.754 28.6175 25.174C28.6175 33.495 34.7125 38.636 42.6095 38.636ZM47.5385 22.471H36.9915C37.3095 20.616 38.6875 18.072 42.2385 18.072C46.0015 18.072 47.3265 20.669 47.5385 22.471Z" fill="#0D0E14"/>
<path d="M71.6456 38.636C75.5676 38.636 79.8076 37.523 82.3516 35.244L78.9066 30.156C77.4756 31.534 74.3486 32.329 72.5466 32.329C68.8366 32.329 66.6106 30.156 66.1336 27.771H84.3656V26.022C84.3656 17.33 78.8536 11.765 71.2746 11.765C63.2716 11.765 57.6536 17.754 57.6536 25.174C57.6536 33.495 63.7486 38.636 71.6456 38.636ZM76.5746 22.471H66.0276C66.3456 20.616 67.7236 18.072 71.2746 18.072C75.0376 18.072 76.3626 20.669 76.5746 22.471Z" fill="#0D0E14"/>
<path d="M97.2967 38V19.503H102.491V12.401H97.2967V11.129C97.2967 9.32697 98.5687 8.31997 100.106 8.31997C101.272 8.31997 102.014 8.63797 102.65 9.32697L105.671 4.66297C103.922 2.86096 101.06 2.11896 98.3037 2.11896C92.9507 2.11896 89.1347 5.72297 89.1347 11.129V12.401H84.8947V19.503H89.1347V38H97.2967Z" fill="#0D0E14"/>
<path d="M106.333 47.964C107.181 48.229 109.089 48.388 109.831 48.388C114.707 48.282 118.576 47.063 120.643 41.657L132.197 12.401H123.558L117.728 28.619L111.951 12.401H103.365L113.541 38.371L112.958 39.749C112.534 40.809 111.368 41.18 109.513 41.18C108.877 41.18 108.082 41.021 107.499 40.703L106.333 47.964Z" fill="#0D0E14"/>
<path d="M135.048 38.636C137.751 38.636 140.03 36.357 140.03 33.654C140.03 30.951 137.751 28.672 135.048 28.672C132.345 28.672 130.066 30.951 130.066 33.654C130.066 36.357 132.345 38.636 135.048 38.636Z" fill="#0D0E14"/>
<path d="M153.609 38V19.503H158.803V12.401H153.609V11.129C153.609 9.37997 154.722 8.31997 156.312 8.31997C157.213 8.31997 158.008 8.58497 158.485 8.95597L160.022 3.28497C158.75 2.59596 156.842 2.11896 154.616 2.11896C149.316 2.11896 145.447 5.66997 145.447 11.129V12.401H141.207V19.503H145.447V38H153.609ZM166.276 10.122C168.873 10.122 170.94 8.00197 170.94 5.40497C170.94 2.80797 168.873 0.740967 166.276 0.740967C163.679 0.740967 161.612 2.80797 161.612 5.40497C161.612 8.00197 163.679 10.122 166.276 10.122ZM170.357 38V12.401H162.195V38H170.357Z" fill="#0D0E14"/>
<path d="M199.799 38V19.874C199.799 15.157 197.149 11.765 191.319 11.765C187.026 11.765 184.005 13.726 182.468 15.528V12.401H174.306V38H182.468V21.464C183.422 20.298 185.012 18.973 187.45 18.973C189.994 18.973 191.637 20.086 191.637 23.213V38H199.799Z" fill="#0D0E14"/>
<path d="M227.99 38V21.994C227.99 14.044 222.213 11.765 216.065 11.765C212.143 11.765 207.744 12.931 204.458 15.74L207.373 20.881C209.44 19.132 212.09 18.178 214.634 18.178C217.92 18.178 219.828 19.662 219.828 21.888V24.962C218.291 23.054 215.27 21.994 211.878 21.994C207.956 21.994 203.08 24.008 203.08 30.209C203.08 35.986 207.956 38.636 211.878 38.636C215.164 38.636 218.238 37.364 219.828 35.456V38H227.99ZM215.27 33.283C213.097 33.283 211.189 32.329 211.189 30.315C211.189 28.301 213.097 27.347 215.27 27.347C217.072 27.347 218.98 27.983 219.828 29.149V31.428C218.98 32.647 217.072 33.283 215.27 33.283Z" fill="#0D0E14"/>
<path d="M258.407 38V19.874C258.407 15.157 255.757 11.765 249.927 11.765C245.634 11.765 242.613 13.726 241.076 15.528V12.401H232.914V38H241.076V21.464C242.03 20.298 243.62 18.973 246.058 18.973C248.602 18.973 250.245 20.086 250.245 23.213V38H258.407Z" fill="#0D0E14"/>
<path d="M275.627 38.636C281.139 38.636 284.584 36.145 286.121 33.919L280.821 28.937C279.814 30.368 278.171 31.428 275.998 31.428C272.606 31.428 270.009 29.043 270.009 25.174C270.009 21.305 272.606 18.973 275.998 18.973C278.171 18.973 279.814 19.927 280.821 21.411L286.121 16.482C284.584 14.203 281.139 11.765 275.627 11.765C267.624 11.765 261.635 17.171 261.635 25.174C261.635 33.23 267.624 38.636 275.627 38.636Z" fill="#0D0E14"/>
<path d="M301.127 38.636C305.049 38.636 309.289 37.523 311.833 35.244L308.388 30.156C306.957 31.534 303.83 32.329 302.028 32.329C298.318 32.329 296.092 30.156 295.615 27.771H313.847V26.022C313.847 17.33 308.335 11.765 300.756 11.765C292.753 11.765 287.135 17.754 287.135 25.174C287.135 33.495 293.23 38.636 301.127 38.636ZM306.056 22.471H295.509C295.827 20.616 297.205 18.072 300.756 18.072C304.519 18.072 305.844 20.669 306.056 22.471Z" fill="#0D0E14"/>
</svg>
