<svg xmlns="http://www.w3.org/2000/svg" viewBox="0 0 10.89 19.29"><g id="Layer_2" data-name="Layer 2"><g id="Layer_1-2" data-name="Layer 1"><path d="M10.89,17.8H9.65v1.48h0l-1-1.21-1,1.21h0V17.8H7.4c-1.4,0-2.81,0-4.21,0a3,3,0,0,1-3-2.33A4.79,4.79,0,0,1,0,14.28V4.34a.5.5,0,0,1,.17-.4,1.9,1.9,0,0,1,.45-.31L9,0l.11,0V4.16h1.78ZM9.11,4.74v5.93a.57.57,0,0,1-.37.58L3.14,13.7l-.1.05v0h7.27v-9ZM7.54,16.65h-1c-1.13,0-2.25,0-3.38,0a1.69,1.69,0,0,1-1.71-1.91,1.65,1.65,0,0,1,1-1.4c2-.86,3.93-1.73,5.9-2.58.23-.09.35-.2.3-.46a1.4,1.4,0,0,1,0-.29l-.1,0-6.39,2.8a2.32,2.32,0,0,0-.64.43,2.3,2.3,0,0,0,1.58,4H7.54Zm2.79-1.73V14.5c0-.15,0-.15-.15-.15H2.3a.07.07,0,0,0-.06,0,1,1,0,0,0-.13.54Zm-2.8.59H2.27l.08.12a1.14,1.14,0,0,0,.94.45H7.53ZM4.91,3.5l-.17.07-1.69.72L1.41,5s-.09.06-.09.09,0,.34,0,.52l.11,0L2.83,5l2-.86s.09,0,.09-.08S4.91,3.69,4.91,3.5Zm0,1.21-.18.07-1.56.67-1.76.76s-.09,0-.09.08,0,.34,0,.53l.12-.05,1.39-.6,2-.85s.09-.06.09-.09S4.91,4.9,4.91,4.71Zm4.76,10.8v.56h.65v-.56Zm0,1.71h.66v-.56H9.66Z"/></g></g></svg>