<svg width="16" height="15" viewBox="0 0 16 15" fill="none" xmlns="http://www.w3.org/2000/svg">
<path d="M8 0C3.77467 0 0 2.81733 0 6.67133C0 8.038 0.492 9.38 1.36467 10.4213C1.40133 11.6413 0.682667 13.392 0.036 14.6667C1.77067 14.3533 4.23667 13.6613 5.35467 12.976C11.512 14.474 16 10.706 16 6.67133C16 2.79667 12.1993 0 8 0ZM8 10C7.62333 10 7.31733 9.694 7.31733 9.31667C7.31733 8.94 7.62333 8.634 8 8.634C8.37733 8.634 8.68267 8.94 8.68267 9.31667C8.68267 9.694 8.37733 10 8 10ZM9.07067 6.76133C8.57733 7.294 8.554 7.58867 8.56 7.95133H7.46467C7.46067 7.146 7.47533 6.79 8.24667 6.05667C8.55933 5.75933 8.80667 5.524 8.772 5.06133C8.74067 4.62133 8.37267 4.392 8.02733 4.392C7.64 4.392 7.18667 4.68 7.18667 5.49133H6.08933C6.08933 4.18067 6.85933 3.33333 8.05 3.33333C8.616 3.33333 9.11133 3.51867 9.44333 3.85533C9.75533 4.17067 9.916 4.60533 9.91 5.11067C9.90133 5.86667 9.44067 6.36267 9.07067 6.76133Z" fill="#0D0E14"/>
</svg>
