<svg width="239" height="75" viewBox="0 0 239 75" fill="none" xmlns="http://www.w3.org/2000/svg">
<rect x="1" width="47" height="4" rx="2" fill="#C4C4C4"/>
<rect x="1" y="8" width="11" height="4" rx="2" fill="#C4C4C4"/>
<rect x="129" y="8" width="20" height="4" rx="2" fill="#C4C4C4"/>
<rect x="19" y="8" width="11" height="4" rx="2" fill="#C4C4C4"/>
<rect x="167" y="8" width="20" height="4" rx="2" fill="#C4C4C4"/>
<rect x="207" width="32" height="12" rx="3" fill="#C4C4C4"/>
<path d="M116 2.48696L114.948 1.82609L110.742 1L106.536 1.9913L103.381 5.13043L99.701 4.63478L96.0206 2.81739L92.3402 6.78261L88.6598 7.93913L84.9794 7.6087L80.7732 11.5739H77.0928L72.8866 11.0783L69.732 9.75652L65 9.5913" stroke="#7ACA91"/>
<rect x="1" y="30" width="47" height="4" rx="2" fill="#C4C4C4"/>
<rect x="1" y="38" width="11" height="4" rx="2" fill="#C4C4C4"/>
<rect x="129" y="38" width="20" height="4" rx="2" fill="#C4C4C4"/>
<rect x="19" y="38" width="11" height="4" rx="2" fill="#C4C4C4"/>
<rect x="167" y="38" width="20" height="4" rx="2" fill="#C4C4C4"/>
<rect x="207" y="30" width="32" height="12" rx="3" fill="#C4C4C4"/>
<path d="M116 32.487L114.948 31.8261L110.742 31L106.536 31.9913L103.381 35.1304L99.701 34.6348L96.0206 32.8174L92.3402 31.7826L88.6598 32.9391L84.9794 37.6087L80.7732 40.5739H77.0928L72.8866 41.0783L69.732 39.7565L65 42.5913" stroke="#7ACA91"/>
<rect x="1" y="61" width="47" height="4" rx="2" fill="#C4C4C4"/>
<rect x="1" y="69" width="11" height="4" rx="2" fill="#C4C4C4"/>
<rect x="129" y="69" width="20" height="4" rx="2" fill="#C4C4C4"/>
<rect x="19" y="69" width="11" height="4" rx="2" fill="#C4C4C4"/>
<rect x="167" y="69" width="20" height="4" rx="2" fill="#C4C4C4"/>
<rect x="207" y="61" width="32" height="12" rx="3" fill="#C4C4C4"/>
<path d="M116 60.5L114.948 62.8261L110.742 62L106.536 62.9913L103.381 66.1304L99.7011 65.6348L96.0207 70.8174L92.3402 67.7826L88.6598 68.9391L84.9794 68.6087L80.7732 72.5739L77.0928 69.5739L72.8866 72.0782L69.732 73.7565L65 70.5913" stroke="#7ACA91"/>
<rect y="22" width="239" height="1" fill="#C4C4C4"/>
<rect y="52" width="239" height="1" fill="#C4C4C4"/>
</svg>
